<mxfile host="app.diagrams.net" modified="2023-06-05T10:27:57.469Z" agent="Mozilla/5.0 (Windows NT 10.0; Win64; x64; rv:109.0) Gecko/20100101 Firefox/113.0" version="21.3.7" etag="Ref0_6qkYGbfYN9GshTj" type="github">
  <diagram name="Page-1" id="N_ltqUGmTPwvn0hJlvgv">
    <mxGraphModel>
      <root>
        <mxCell id="0" />
        <mxCell id="1" parent="0" />
      </root>
    </mxGraphModel>
  </diagram>
</mxfile>
